#!OML:ASF I:\salsa\salsa 7_09\Patient 1\Session 1\dancerfemale.ASF
:FULLY-SPECIFIED
:DEGREES
2495
root -4.16931 16.0337 7.07394 -907.194 775.81 520.141
lowerback 12.6357 -0.910446 -12.0354
upperback 6.1666 -1.84609 -5.54785
thorax -0.246436 -0.753771 1.12326
lowerneck -3.82129 -4.14605 -9.32764
upperneck 19.6145 -5.01131 5.19325
head 6.98933 -2.45288 2.89987
rclavicle -2.06736e-014 -2.14687e-014
rhumerus -43.2932 -9.94109 -78.1834
rradius 50.3871
rwrist -9.50098
rhand 1.90869 57.0684
rfingers 7.12502
rthumb 27.4173 389.043
lclavicle -2.06736e-014 -2.14687e-014
lhumerus -9.9152 -11.6998 83.7028
lradius 99.1477
lwrist -17.7452
lhand -22.792 33.3684
lfingers 7.12502
lthumb 3.64398 783.317
rfemur -35.9901 -1.34852 1.4446
rtibia 23.3417
rfoot -7.03615 -27.3139
rtoes 12.0121
lfemur -8.14715 -0.222081 -33.3736
ltibia 22.6692
lfoot -25.5097 -2.59521
ltoes -25.9927
2496
root -4.09001 16.0391 7.11833 -906.786 775.834 520.318
lowerback 13.1768 -0.76357 -12.0093
upperback 6.61706 -1.62517 -5.61432
thorax -0.0756439 -0.637305 1.01436
lowerneck -3.39722 -4.06005 -9.18935
upperneck 19.5972 -4.8835 4.9955
head 6.89134 -2.39522 2.82995
rclavicle 6.75868e-015 -4.77083e-014
rhumerus -42.8067 -9.04181 -78.5206
rradius 50.581
rwrist -8.78199
rhand 2.50453 56.8651
rfingers 7.12502
rthumb 27.987 388.932
lclavicle 6.75868e-015 -4.77083e-014
lhumerus -9.9286 -10.6428 83.6282
lradius 98.725
lwrist -18.5109
lhand -22.2746 33.6097
lfingers 7.12502
lthumb 4.14358 783.549
rfemur -36.0716 -1.54092 1.96121
rtibia 23.3011
rfoot -6.79718 -26.3695
rtoes 10.8807
lfemur -8.22755 -0.291401 -32.968
ltibia 22.6305
lfoot -25.738 -2.42757
ltoes -26.2621
2497
root -4.00949 16.0458 7.16358 -906.218 775.752 520.606
lowerback 13.7799 -0.723744 -11.9614
upperback 6.96198 -1.57881 -5.57399
thorax -0.0307864 -0.606186 1.02864
lowerneck -3.00615 -3.87076 -9.27628
upperneck 19.768 -4.57456 4.77583
head 6.85389 -2.26438 2.80495
rclavicle 3.97569e-015 -2.78299e-014
rhumerus -42.4187 -8.15544 -78.687
rradius 50.9488
rwrist -8.35181
rhand 3.35529 56.3803
rfingers 7.12502
rthumb 28.8 388.582
lclavicle 3.97569e-015 -2.78299e-014
lhumerus -10.2719 -9.15924 83.6727
lradius 98.366
lwrist -19.0691
lhand -22.1742 33.9862
lfingers 7.12502
lthumb 4.24056 783.924
rfemur -36.1839 -1.84699 2.52829
rtibia 23.2594
rfoot -6.82954 -26.1201
rtoes 9.96172
lfemur -8.38522 -0.26813 -32.5104
ltibia 22.5386
lfoot -25.8564 -2.4043
ltoes -26.4792
2498
root -3.92892 16.0548 7.20951 -905.476 775.646 521.02
lowerback 14.3256 -0.759782 -11.7897
upperback 7.3132 -1.60946 -5.49542
thorax 0.0554354 -0.614725 1.02495
lowerneck -2.82191 -3.65933 -9.56226
upperneck 20.0752 -4.21845 4.66492
head 6.90156 -2.11582 2.84937
rclavicle 9.93923e-015 7.4743e-014
rhumerus -41.9161 -7.33616 -78.8362
rradius 51.4046
rwrist -8.21727
rhand 4.0552 55.6344
rfingers 7.12502
rthumb 29.4684 387.952
lclavicle 9.93923e-015 7.4743e-014
lhumerus -10.7045 -7.3751 83.7733
lradius 97.9967
lwrist -19.5717
lhand -22.5508 34.6062
lfingers 7.12502
lthumb 3.87684 784.551
rfemur -36.3399 -2.02371 3.11605
rtibia 23.1901
rfoot -7.43938 -25.9954
rtoes 9.12822
lfemur -8.66115 -0.405904 -31.9884
ltibia 22.4846
lfoot -25.9188 -2.24624
ltoes -26.8268
2499
root -3.84123 16.0641 7.24897 -904.572 775.543 521.621
lowerback 14.6483 -0.827997 -11.4034
upperback 7.79917 -1.5952 -5.40588
thorax 0.392096 -0.606892 0.904985
lowerneck -2.80153 -3.50266 -9.78496
upperneck 20.2843 -3.93447 4.52224
head 6.94928 -2.00241 2.86367
rclavicle 5.32743e-014 -1.90833e-014
rhumerus -41.1289 -6.78706 -78.9896
rradius 51.7297
rwrist -8.3375
rhand 4.37852 54.9577
rfingers 7.12502
rthumb 29.777 387.33
lclavicle 5.32743e-014 -1.90833e-014
lhumerus -11.1093 -5.54857 83.8821
lradius 97.6122
lwrist -19.9174
lhand -22.4089 35.2312
lfingers 7.12502
lthumb 4.01389 785.173
rfemur -36.4473 -2.42518 3.94266
rtibia 23.0835
rfoot -7.90136 -25.5242
rtoes 8.70829
lfemur -8.92517 -0.863757 -31.3657
ltibia 22.522
lfoot -26.093 -1.8104
ltoes -27.2385
2500
root -3.74244 16.0725 7.28442 -903.522 775.488 522.509
lowerback 14.941 -0.843515 -10.7785
upperback 8.3555 -1.46298 -5.3126
thorax 0.79811 -0.532561 0.641154
lowerneck -2.78124 -3.41974 -9.76236
upperneck 20.3798 -3.76445 4.28803
head 6.9611 -1.93422 2.79723
rclavicle -3.77691e-014 1.59028e-015
rhumerus -40.192 -6.70002 -79.1726
rradius 51.7718
rwrist -8.57426
rhand 4.29431 54.7219
rfingers 7.12502
rthumb 29.6966 387.08
lclavicle -3.77691e-014 1.59028e-015
lhumerus -11.7595 -4.00549 83.8255
lradius 97.2459
lwrist -19.8937
lhand -21.8833 35.7371
lfingers 7.12502
lthumb 4.52149 785.669
rfemur -36.431 -2.94021 5.08135
rtibia 22.9841
rfoot -8.1965 -24.8145
rtoes 8.48151
lfemur -9.07245 -1.31081 -30.5405
ltibia 22.6233
lfoot -26.3933 -1.32382
ltoes -27.6898
